<svg width="74" height="76" viewBox="0 0 74 76" fill="none" xmlns="http://www.w3.org/2000/svg">
<path d="M37.8979 27.8624C36.4499 27.8624 35.0125 28.1103 33.6482 28.5954L11.3977 36.5065L37.8979 46.5788L38.2656 46.2928V27.8703C38.143 27.8667 38.0205 27.8624 37.8979 27.8624V27.8624Z" fill="#05858D"/>
<path d="M23.9305 32.0505L11.3977 36.5065L23.7888 41.2161C21.0002 38.8449 21.0625 34.3381 23.9305 32.0505Z" fill="#05858D"/>
<path d="M42.1477 28.5954C40.7833 28.1103 39.346 27.8624 37.8979 27.8624V46.4304L64.3981 36.5065L42.1477 28.5954Z" fill="#0296E5"/>
<path d="M37.8979 45.9851L33.4168 51.281C33.0454 51.7938 32.3798 51.9999 31.7835 51.7866L11.3977 44.495V64.1289C11.3977 65.2928 12.1291 66.3312 13.225 66.7232L34.3073 74.2638C35.4595 74.6759 36.6741 74.8867 37.8977 74.8867C38.0204 74.8867 38.143 74.883 38.2654 74.8788V46.4317L37.8979 45.9851Z" fill="#0296E5"/>
<path d="M16.7031 65.6452V46.3925L11.3978 44.4949V64.1288C11.3978 65.2927 12.1292 66.331 13.2251 66.7231L17.9966 68.4297C17.1932 67.7497 16.7031 66.7403 16.7031 65.6452V65.6452Z" fill="#05858D"/>
<path d="M44.0124 51.935C43.4161 52.1483 42.7506 51.9423 42.3791 51.4294L37.8979 45.9852V74.8867C39.1217 74.8867 40.3362 74.6761 41.4886 74.2638L62.5708 66.7232C63.6668 66.3312 64.3981 65.2928 64.3981 64.1289V44.6435L44.0124 51.935Z" fill="#0296E5"/>
<path d="M50.3957 4.42234C49.1638 3.79221 48.1575 2.78415 47.5302 1.55061C47.3939 1.28267 47.1203 1.11241 46.8197 1.11241C46.519 1.11241 46.2456 1.28267 46.1093 1.55061C45.482 2.78415 44.4757 3.79206 43.2438 4.42234C42.9767 4.5589 42.8074 4.83188 42.8074 5.13188V5.15148C42.8074 5.44821 42.9715 5.72208 43.2359 5.85701C44.4638 6.48328 45.4676 7.48466 46.0968 8.71078C46.2319 8.97411 46.5053 9.1374 46.8013 9.1374H46.8384C47.1344 9.1374 47.4078 8.97411 47.5429 8.71078C48.1722 7.48466 49.1759 6.48328 50.4038 5.85701C50.6682 5.72223 50.8324 5.44836 50.8324 5.15148V5.13188C50.8321 4.83203 50.6627 4.55905 50.3957 4.42234V4.42234Z" fill="#FFE02F"/>
<path d="M32.4297 7.71351C31.5077 7.24192 30.7547 6.48757 30.2852 5.56443C30.1832 5.36389 29.9785 5.23653 29.7535 5.23653C29.5284 5.23653 29.3237 5.36389 29.2218 5.56443C28.7523 6.48757 27.9992 7.24192 27.0773 7.71351C26.8775 7.81578 26.7507 8.02003 26.7507 8.24447V8.25917C26.7507 8.48123 26.8736 8.68622 27.0715 8.78716C27.9905 9.25578 28.7417 10.0052 29.2126 10.9229C29.3137 11.12 29.5183 11.2422 29.7398 11.2422H29.7676C29.989 11.2422 30.1937 11.12 30.2948 10.9229C30.7657 10.0052 31.5169 9.25578 32.4359 8.78716C32.6338 8.68622 32.7567 8.48123 32.7567 8.25917V8.24447C32.7562 8.02003 32.6295 7.81578 32.4297 7.71351V7.71351Z" fill="#FFEA7E"/>
<path d="M46.2417 5.85701C45.9773 5.72223 45.8132 5.44836 45.8132 5.15148V5.13188C45.8132 4.83188 45.9825 4.5589 46.2496 4.42234C47.0503 4.01279 47.7548 3.44278 48.3227 2.7558C48.0168 2.38573 47.7499 1.98242 47.5302 1.55061C47.3939 1.28267 47.1203 1.11241 46.8197 1.11241C46.5191 1.11241 46.2456 1.28267 46.1093 1.55061C45.482 2.78415 44.4757 3.79206 43.2438 4.42234C42.9767 4.5589 42.8074 4.83188 42.8074 5.13188V5.15148C42.8074 5.44821 42.9715 5.72208 43.2359 5.85701C44.4638 6.48328 45.4676 7.48466 46.0968 8.71078C46.2319 8.97411 46.5053 9.1374 46.8013 9.1374H46.8384C47.1344 9.1374 47.4078 8.97411 47.5429 8.71078C47.7601 8.28772 48.0227 7.89213 48.3228 7.52875C47.753 6.83909 47.0458 6.26715 46.2417 5.85701V5.85701Z" fill="#FBC700"/>
<path d="M29.669 8.78716C29.4711 8.68622 29.3484 8.48123 29.3484 8.25917V8.24447C29.3484 8.02003 29.4751 7.81564 29.6749 7.71351C30.1958 7.44707 30.66 7.08785 31.0524 6.66153C30.7502 6.33319 30.4896 5.9661 30.2853 5.56443C30.1833 5.36389 29.9786 5.23653 29.7536 5.23653C29.5286 5.23653 29.3239 5.36389 29.2219 5.56443C28.7524 6.48757 27.9994 7.24192 27.0774 7.71351C26.8776 7.81578 26.7509 8.02003 26.7509 8.24447V8.25917C26.7509 8.48123 26.8738 8.68622 27.0715 8.78716C27.9905 9.25578 28.7417 10.0052 29.2125 10.9229C29.3136 11.12 29.5183 11.2422 29.7398 11.2422H29.7676C29.989 11.2422 30.1937 11.12 30.2948 10.9229C30.4976 10.5279 30.755 10.1664 31.0526 9.8427C30.6585 9.41446 30.1922 9.05405 29.669 8.78716V8.78716Z" fill="#FFE02F"/>
<path d="M68.3924 42.0212L64.3979 36.5065L37.8977 45.9851L42.3788 52.1715C42.7504 52.6843 43.4158 52.8904 44.0121 52.677L67.7185 44.1978C68.6125 43.8782 68.9494 42.79 68.3924 42.0212V42.0212Z" fill="#0296E5"/>
<path d="M7.40334 42.0212L11.3979 36.5065L37.898 45.9851L33.4169 52.1715C33.0454 52.6843 32.3799 52.8904 31.7836 52.677L8.07711 44.1978C7.1832 43.8782 6.84639 42.79 7.40334 42.0212V42.0212Z" fill="#0296E5"/>
<path d="M11.692 43.5974L15.7108 38.0493L11.3977 36.5065L7.4033 42.0213C6.84635 42.79 7.18331 43.8782 8.07707 44.198L11.7848 45.5242C11.3293 45.0054 11.2492 44.2088 11.692 43.5974Z" fill="#05858D"/>
<path d="M10.5982 35.8536L6.60384 41.3681C5.61122 42.7384 6.21003 44.676 7.80443 45.2461L10.3867 46.1697V64.1288C10.3867 65.7586 11.4178 67.2226 12.9525 67.7713L34.0346 75.312C36.5556 76.2139 39.3581 76.2446 41.9655 75.312L63.0477 67.7713C64.5824 67.2226 65.6135 65.7586 65.6135 64.1288V58.4463C65.6135 57.8313 65.1152 57.333 64.5002 57.333C63.8852 57.333 63.3869 57.8313 63.3869 58.4463V64.1288C63.3869 64.8205 62.9493 65.4419 62.2979 65.6749L41.2155 73.2155C40.5324 73.4599 39.8288 73.6248 39.1133 73.7085V49.4198L41.5795 52.8244C42.2325 53.7265 43.431 54.1043 44.4895 53.7253C45.6694 53.3033 62.8648 47.153 63.387 46.9661V53.2508C63.387 53.8658 63.8854 54.3641 64.5004 54.3641C65.1153 54.3641 65.6137 53.8658 65.6137 53.2508V46.1697L68.1959 45.2461C69.7891 44.6763 70.3897 42.739 69.3962 41.368L69.3964 41.3681L65.402 35.8536C65.2881 35.6961 65.0885 35.5341 64.8732 35.4577L55.223 32.0266C54.6435 31.8201 54.0069 32.1231 53.8011 32.7026C53.595 33.282 53.8977 33.9185 54.4771 34.1245L61.1857 36.5098L39.1132 44.4045V29.029C40.0546 29.1197 40.9803 29.3256 41.8767 29.6444L49.5542 32.3743C50.1335 32.5806 50.7702 32.2778 50.9761 31.6983C51.1821 31.1189 50.8795 30.4824 50.3001 30.2764L42.6226 27.5465C39.7074 26.5098 36.4435 26.4561 33.3772 27.5465L11.1268 35.4577C10.9146 35.5332 10.7176 35.6888 10.5982 35.8536V35.8536ZM8.40695 42.6744L11.9113 37.8361L36.2278 46.5335C35.4026 47.6727 36.1221 46.6796 32.6171 51.5185C32.5365 51.6296 32.3894 51.6748 32.2606 51.6289C31.8464 51.4808 8.9872 43.3045 8.5542 43.1497C8.35871 43.0796 8.28508 42.8426 8.40695 42.6744V42.6744ZM13.7021 65.6749C13.0508 65.442 12.6132 64.8205 12.6132 64.1288V46.9661L31.5108 53.7253C32.5791 54.1076 33.7689 53.7172 34.4156 52.831C34.4173 52.8288 34.4191 52.8268 34.4207 52.8246C34.4207 52.8244 34.4207 52.8244 34.4207 52.8244L36.8867 49.4198V73.7084C36.1712 73.6246 35.4675 73.4597 34.7844 73.2155L13.7021 65.6749ZM67.5931 42.6744C67.7148 42.8424 67.6412 43.0796 67.446 43.1497C67.2232 43.2294 43.9737 51.545 43.7396 51.6288C43.6108 51.6751 43.4635 51.6298 43.3829 51.5185L39.7721 46.5335L64.0887 37.8361L67.5931 42.6744ZM34.1232 29.6444C35.0196 29.3257 35.9452 29.1199 36.8866 29.029V44.4045C35.9318 44.0629 15.6743 36.8174 14.8142 36.5097L34.1232 29.6444Z" fill="#252836"/>
<path d="M39.1132 23.2002V9.28643C39.1132 8.67144 38.6149 8.17313 37.9999 8.17313C37.3849 8.17313 36.8866 8.67144 36.8866 9.28643V23.2C36.8866 23.815 37.3849 24.3133 37.9999 24.3133C38.6149 24.3133 39.1132 23.815 39.1132 23.2002Z" fill="#FF8700"/>
<path d="M52.7416 11.4148C52.4236 11.5539 44.9404 14.9263 43.7032 24.2025C43.6144 24.8685 44.1319 25.463 44.8082 25.463C45.3575 25.463 45.8357 25.0563 45.9103 24.4967C46.3567 21.1495 47.7817 18.2803 50.1458 15.9688C51.9223 14.2316 53.5984 13.4707 53.6359 13.4539C54.1976 13.2067 54.4537 12.5514 54.2077 11.9888C53.9614 11.4255 53.3055 11.1687 52.7416 11.4148V11.4148Z" fill="#FF8700"/>
<path d="M50.4791 26.5806C50.1736 27.1143 50.3586 27.7944 50.8922 28.0998C51.4251 28.405 52.1057 28.2207 52.4113 27.6867C54.9972 23.1693 58.8382 21.4058 61.6053 20.7221C62.2022 20.5746 62.5665 19.971 62.4189 19.3741C62.2714 18.7773 61.6677 18.4127 61.0709 18.5605C58.4603 19.206 53.613 21.1057 50.4791 26.5806V26.5806Z" fill="#FF8700"/>
<path d="M21.7922 11.9888C21.546 12.5521 21.8029 13.2085 22.3663 13.4549C22.4326 13.4839 29.0165 16.4505 30.0896 24.4968C30.1711 25.1083 30.7331 25.5344 31.3404 25.4532C31.9499 25.3719 32.378 24.812 32.2968 24.2025C31.0595 14.9263 23.5762 11.5537 23.2582 11.4148C22.6949 11.1687 22.0388 11.4256 21.7922 11.9888V11.9888Z" fill="#FF8700"/>
<path d="M13.581 19.3741C13.4336 19.971 13.7978 20.5746 14.3946 20.7221C17.1616 21.406 21.0028 23.1695 23.5885 27.6867C23.8941 28.2207 24.5747 28.4051 25.1076 28.0998C25.6413 27.7943 25.8262 27.1141 25.5207 26.5806C22.387 21.1057 17.5394 19.2058 14.9289 18.5605C14.3316 18.4128 13.7285 18.7776 13.581 19.3741V19.3741Z" fill="#FF8700"/>
<path d="M58.3771 11.3215C57.7621 11.3215 57.2638 11.8198 57.2638 12.4348C57.2638 13.0498 57.7621 13.5481 58.3771 13.5481H59.1524V14.3234C59.1524 14.9383 59.6507 15.4366 60.2656 15.4366C60.8806 15.4366 61.3789 14.9383 61.3789 14.3234V13.5481H62.1542C62.7692 13.5481 63.2675 13.0498 63.2675 12.4348C63.2675 11.8198 62.7692 11.3215 62.1542 11.3215H61.3789V10.5464C61.3789 9.93139 60.8806 9.43309 60.2656 9.43309C59.6507 9.43309 59.1524 9.93139 59.1524 10.5464V11.3215H58.3771Z" fill="#FF8700"/>
<path d="M13.5485 26.7491H12.7732C12.1582 26.7491 11.6599 27.2474 11.6599 27.8624C11.6599 28.4773 12.1582 28.9756 12.7732 28.9756H13.5485V29.7509C13.5485 30.3659 14.0468 30.8642 14.6618 30.8642C15.2767 30.8642 15.775 30.3659 15.775 29.7509V28.9756H16.5503C17.1653 28.9756 17.6636 28.4773 17.6636 27.8624C17.6636 27.2474 17.1653 26.7491 16.5503 26.7491H15.775V25.9738C15.775 25.3588 15.2767 24.8605 14.6618 24.8605C14.0468 24.8605 13.5485 25.3588 13.5485 25.9738V26.7491Z" fill="#FF8700"/>
<path d="M51.0049 3.43135C49.9875 2.91077 49.1421 2.06362 48.6246 1.04591C47.9148 -0.348689 45.9288 -0.34854 45.219 1.04621C44.7016 2.06362 43.8561 2.91091 42.8389 3.4312C41.445 4.14401 41.4544 6.14617 42.8322 6.84874C43.8451 7.36532 44.6892 8.20712 45.2084 9.21919C45.915 10.5958 47.9287 10.5961 48.6355 9.21904C49.1547 8.20727 49.9987 7.36546 51.0118 6.84859C52.3891 6.14617 52.399 4.1446 51.0049 3.43135V3.43135ZM46.9217 7.72499C46.2825 6.67522 45.3885 5.78116 44.3387 5.14183C45.3889 4.50264 46.2827 3.60948 46.9219 2.56045C47.5612 3.60948 48.4548 4.50264 49.5047 5.14183C48.4551 5.78116 47.561 6.67507 46.9217 7.72499V7.72499Z" fill="#252836"/>
<path d="M28.324 11.4314C28.9565 12.6635 30.7547 12.6654 31.3873 11.4314C31.7492 10.726 32.3375 10.1392 33.0436 9.77911C34.2681 9.15476 34.295 7.36546 33.0393 6.72257C33.0392 6.72242 33.039 6.72242 33.0389 6.72227C32.3298 6.35963 31.7406 5.76929 31.3798 5.05974C30.7452 3.8121 28.9666 3.8118 28.3315 5.05989C27.9708 5.76914 27.3817 6.35963 26.6717 6.72272C25.4346 7.35641 25.4252 9.14556 26.6678 9.77911C27.3738 10.1391 27.9621 10.726 28.324 11.4314V11.4314ZM29.8556 6.82796C30.2475 7.37704 30.7311 7.86051 31.2806 8.2521C30.7314 8.64383 30.2475 9.1276 29.8556 9.67713C29.4639 9.1279 28.9801 8.64383 28.4307 8.2521C28.9802 7.86036 29.464 7.37704 29.8556 6.82796Z" fill="#252836"/>
</svg>
