<svg width="22" height="24" viewBox="0 0 22 24" fill="none" xmlns="http://www.w3.org/2000/svg">
<path fill-rule="evenodd" clip-rule="evenodd" d="M10.6964 18.6316L5.32379 21.881C4.89483 22.1271 4.36636 21.9529 4.12988 21.4874V21.4874C4.06146 21.3432 4.02455 21.1834 4.02209 21.0206V6.62244C4.02209 3.87644 5.72176 2.77805 8.16762 2.77805H13.9133C16.2846 2.77805 18.0588 3.80322 18.0588 6.43937V21.0206C18.0588 21.2804 17.9654 21.5295 17.799 21.7132C17.6326 21.8968 17.407 22 17.1717 22C17.0216 21.9974 16.8741 21.9567 16.7406 21.881L11.3348 18.6316C11.1356 18.5128 10.8956 18.5128 10.6964 18.6316Z" stroke="#0296E5" stroke-width="2" stroke-linecap="round" stroke-linejoin="round"/>
</svg>
